HIERARCHY
ROOT Hips
{
	OFFSET 0.000000 88.474243 0.000000
	CHANNELS 6 Xposition Yposition Zposition Zrotation Yrotation Xrotation 
	JOINT Hips_Spine
	{
		OFFSET 0.000000 0.000000 0.000000
		CHANNELS 3 Zrotation Yrotation Xrotation
		JOINT Spine
		{
			OFFSET 0.005100 8.711998 -0.691000
			CHANNELS 3 Zrotation Yrotation Xrotation
			JOINT Spine1
			{
				OFFSET -0.009200 8.660301 -1.275000
				CHANNELS 3 Zrotation Yrotation Xrotation
				JOINT Spine2
				{
					OFFSET 0.006300 9.852501 -1.857000
					CHANNELS 3 Zrotation Yrotation Xrotation
					JOINT Spine2_Neck
					{
						OFFSET 0.000000 0.000000 0.000000
						CHANNELS 3 Zrotation Yrotation Xrotation
						JOINT Neck
						{
							OFFSET 0.016300 11.420799 -0.263300
							CHANNELS 3 Zrotation Yrotation Xrotation
							End Site #name: Head
							{
								OFFSET -0.019200 9.262405 2.362500
							}
						}
					}
					JOINT Spine2_LeftShoulder
					{
						OFFSET 0.000000 0.000000 0.000000
						CHANNELS 3 Zrotation Yrotation Xrotation
						JOINT LeftShoulder
						{
							OFFSET 5.616900 6.732201 -0.345700
							CHANNELS 3 Zrotation Yrotation Xrotation
							JOINT LeftArm
							{
								OFFSET 10.664888 -0.183372 -2.440700
								CHANNELS 3 Zrotation Yrotation Xrotation
								JOINT LeftForeArm
								{
									OFFSET 27.459126 0.000000 0.000000
									CHANNELS 3 Zrotation Yrotation Xrotation
									End Site #name: LeftHand
									{
										OFFSET 21.306858 0.000000 0.000000
									}
								}
							}
						}
					}
					JOINT Spine2_RightShoulder
					{
						OFFSET 0.000000 0.000000 0.000000
						CHANNELS 3 Zrotation Yrotation Xrotation
						JOINT RightShoulder
						{
							OFFSET -5.580300 6.737503 -0.344400
							CHANNELS 3 Zrotation Yrotation Xrotation
							JOINT RightArm
							{
								OFFSET -10.679335 -0.188484 -2.383900
								CHANNELS 3 Zrotation Yrotation Xrotation
								JOINT RightForeArm
								{
									OFFSET -27.503529 0.000000 0.000000
									CHANNELS 3 Zrotation Yrotation Xrotation
									End Site #name: RightHand
									{
										OFFSET -21.306808 0.000000 0.000000
									}
								}
							}
						}
					}
				}
			}
		}
	}
	JOINT Hips_LeftUpLeg
	{
		OFFSET 0.000000 0.000000 0.000000
		CHANNELS 3 Zrotation Yrotation Xrotation
		JOINT LeftUpLeg
		{
			OFFSET 6.857700 -6.739601 0.312100
			CHANNELS 3 Zrotation Yrotation Xrotation
			JOINT LeftLeg
			{
				OFFSET -0.367590 -34.731552 -4.572400
				CHANNELS 3 Zrotation Yrotation Xrotation
				End Site #name: LeftFoot
				{
					OFFSET 0.367590 -34.656704 -6.067400
				}
			}
		}
	}
	JOINT Hips_RightUpLeg
	{
		OFFSET 0.000000 0.000000 0.000000
		CHANNELS 3 Zrotation Yrotation Xrotation
		JOINT RightUpLeg
		{
			OFFSET -6.876100 -6.733299 0.301000
			CHANNELS 3 Zrotation Yrotation Xrotation
			JOINT RightLeg
			{
				OFFSET 0.347353 -34.795158 -4.515900
				CHANNELS 3 Zrotation Yrotation Xrotation
				End Site #name: RightFoot
				{
					OFFSET -0.347353 -34.589367 -6.070300
				}
			}
		}
	}
}
MOTION
Frames: 10
Frame Time: 0.041667
2.527633 0.792839 -4.979056 175.555349 -4.674879 -178.033636 0.000000 -0.000000 0.000000 -6.606090 -0.945344 3.984733 0.662865 -2.178103 -0.492570 0.000000 0.000000 0.000000 1.158551 -1.875732 0.202116 2.605582 -32.403538 -3.522393 0.008479 -1.675633 -1.318580 1.854309 -8.251473 0.994029 -86.363278 -22.897608 12.294378 2.633399 -16.259348 -0.223276 0.506766 -2.585910 -0.614199 15.242347 13.224787 4.282941 55.532648 8.558005 10.443908 -0.709396 45.069891 4.167335 0.000000 0.000000 -0.000000 -3.140148 15.211198 -5.169366 -0.037382 -36.459166 -15.000735 0.000000 0.000000 -0.000000 -4.570338 -54.067510 -9.967081 -11.765538 -5.674218 20.898137 
2.578340 0.854702 -5.103288 175.453076 -4.142731 -178.015068 0.000000 -0.000000 0.000000 -6.942903 -0.767856 4.156169 0.674751 -2.044951 -0.596054 0.000000 0.000000 0.000000 1.137495 -1.817665 0.089391 2.323173 -31.103453 -4.100410 0.018954 -1.594726 -1.342948 1.924690 -8.531117 1.025476 -86.130738 -23.013025 12.550388 2.548914 -17.442449 -0.382265 0.532563 -2.492180 -0.685329 14.902898 13.188983 4.320400 55.531569 8.411678 10.765368 -1.008905 44.652554 3.754858 0.000000 0.000000 -0.000000 -3.193861 14.909193 -5.676558 -0.233711 -36.289234 -14.382049 0.000000 0.000000 -0.000000 -4.394355 -53.118917 -9.914523 -11.226009 -4.788836 20.350885 
2.632746 0.916548 -5.223225 175.293833 -3.940639 -177.982968 -0.000000 -0.000000 0.000000 -7.275164 -0.532960 4.458989 0.676489 -1.888074 -0.685188 0.000000 0.000000 0.000000 1.106886 -1.743555 -0.036178 2.061199 -29.744895 -4.890589 0.031571 -1.493738 -1.395225 1.997619 -8.768779 1.048774 -85.838476 -23.152766 12.758742 2.513920 -18.828465 -0.486026 0.555757 -2.380759 -0.757688 14.560846 13.161383 4.359031 55.536310 8.318680 11.036323 -1.266824 44.297454 3.376467 0.000000 0.000000 -0.000000 -3.251734 14.587778 -6.166393 -0.441402 -36.124313 -13.754677 0.000000 0.000000 -0.000000 -4.289032 -52.408723 -9.757501 -10.685014 -3.741388 19.831021 
2.691317 0.976468 -5.340390 175.066852 -4.003362 -177.936306 -0.000000 -0.000000 0.000000 -7.584869 -0.318987 4.768100 0.650920 -1.707419 -0.766574 0.000000 0.000000 0.000000 1.070641 -1.657709 -0.165420 1.928757 -28.413023 -5.832683 0.036213 -1.379943 -1.440442 2.069474 -8.984609 1.072516 -85.492589 -23.296543 12.948597 2.529704 -20.490175 -0.582829 0.566293 -2.251954 -0.826917 14.204644 13.166150 4.403271 55.551613 8.268946 11.275748 -1.491899 44.012891 3.003770 0.000000 0.000000 -0.000000 -3.312605 14.214053 -6.651423 -0.675458 -35.980560 -13.107232 0.000000 0.000000 -0.000000 -4.256951 -52.189616 -9.499154 -10.094389 -2.518224 19.336322 
2.754543 1.033088 -5.456053 174.793451 -4.319988 -177.875763 -0.000000 -0.000000 0.000000 -7.881711 -0.124802 5.092092 0.599040 -1.561765 -0.859237 0.000000 0.000000 0.000000 1.035669 -1.574663 -0.295312 2.084205 -27.032112 -7.137275 0.032999 -1.259865 -1.476030 2.141295 -9.179337 1.095237 -85.120147 -23.430996 13.064567 2.587170 -22.375755 -0.687291 0.560480 -2.115401 -0.892714 13.844254 13.208936 4.463839 55.556501 8.245207 11.454274 -1.719655 43.859828 2.650377 0.000000 0.000000 -0.000000 -3.379243 13.804542 -7.133959 -0.927573 -35.860115 -12.448140 0.000000 0.000000 -0.000000 -4.381566 -52.599554 -9.112809 -9.395372 -1.348648 18.839414 
2.825881 1.085992 -5.570559 174.460516 -4.876351 -177.803436 -0.000000 -0.000000 0.000000 -8.193644 0.051876 5.405412 0.532538 -1.438174 -0.941667 0.000000 0.000000 0.000000 0.996367 -1.499765 -0.419770 2.058012 -25.296132 -8.554887 0.021998 -1.134250 -1.496086 2.204404 -9.338293 1.118997 -84.782112 -23.526581 13.148163 2.699015 -24.422606 -0.789459 0.546685 -1.978751 -0.951195 13.511887 13.315988 4.554901 55.570649 8.248544 11.574148 -1.938763 44.009841 2.429236 0.000000 0.000000 -0.000000 -3.450127 13.384045 -7.604891 -1.218069 -35.794661 -11.724819 0.000000 0.000000 -0.000000 -4.649809 -53.389778 -8.718765 -8.683715 -0.306496 18.498211 
2.906034 1.133331 -5.682595 174.095264 -5.779973 -177.714065 -0.000000 -0.000000 0.000000 -8.509216 0.214506 5.706112 0.452279 -1.320307 -0.997894 0.000000 0.000000 0.000000 0.959629 -1.431372 -0.521104 1.938069 -23.463669 -9.789205 0.004696 -1.016263 -1.492024 2.243112 -9.470188 1.149526 -84.470974 -23.611600 13.302844 2.871112 -26.526062 -0.875961 0.527617 -1.848974 -1.003358 13.214204 13.512488 4.658695 55.574688 8.299251 11.605095 -2.142958 44.292908 2.213827 0.000000 0.000000 -0.000000 -3.578107 12.942303 -8.119113 -1.543930 -35.794938 -10.918150 0.000000 0.000000 -0.000000 -5.003993 -54.487310 -8.308842 -7.775239 0.769213 18.274518 
2.991752 1.178027 -5.794207 173.679760 -6.650236 -177.601679 -0.000000 -0.000000 0.000000 -8.817742 0.314431 6.006740 0.376082 -1.229142 -1.014531 0.000000 0.000000 0.000000 0.926534 -1.391641 -0.559399 1.863762 -21.350224 -11.220169 -0.019760 -0.916756 -1.466006 2.279588 -9.600145 1.181087 -84.150123 -23.729313 13.422040 3.090747 -28.605753 -0.981203 0.510926 -1.737694 -1.025851 12.940101 13.823102 4.761300 55.563199 8.413351 11.521593 -2.337826 44.717884 1.995762 0.000000 0.000000 -0.000000 -3.774904 12.506030 -8.705892 -1.921968 -35.866320 -9.991078 0.000000 -0.000000 -0.000000 -5.388793 -55.933150 -7.891403 -6.636194 2.023687 18.190837 
3.081473 1.220230 -5.905921 173.334623 -7.686060 -177.441910 -0.000000 -0.000000 0.000000 -9.137432 0.349001 6.278862 0.309620 -1.174004 -0.944073 0.000000 0.000000 0.000000 0.898467 -1.372289 -0.557676 1.696188 -19.171933 -12.534885 -0.050856 -0.873196 -1.419343 2.327015 -9.752371 1.216637 -83.851275 -23.840789 13.484279 3.382858 -32.001255 -1.142084 0.505698 -1.646436 -1.016971 12.665935 14.264426 4.856351 55.553038 8.577344 11.362009 -2.540262 45.340581 1.757902 0.000000 0.000000 -0.000000 -3.983813 12.151581 -9.312549 -2.386417 -35.974956 -8.953210 0.000000 -0.000000 -0.000000 -5.776578 -57.536076 -7.428267 -5.382156 3.416308 18.249565 
3.174720 1.260985 -6.015730 173.046357 -8.523459 -177.294816 -0.000000 -0.000000 0.000000 -9.486736 0.288245 6.448921 0.230418 -1.165174 -0.842915 0.000000 0.000000 0.000000 0.857436 -1.378484 -0.542436 1.490149 -16.995230 -13.644184 -0.086305 -0.865672 -1.349247 2.388717 -9.916121 1.250257 -83.553548 -23.961505 13.485008 3.713161 -35.247952 -1.313881 0.485133 -1.592998 -1.014138 12.378661 14.820571 4.931773 55.542507 8.802451 11.110294 -2.683039 46.174888 1.581477 0.000000 0.000000 -0.000000 -4.194937 11.891081 -9.892451 -2.905576 -36.102238 -7.788074 0.000000 -0.000000 -0.000000 -6.067023 -58.909036 -7.044411 -5.162240 4.197454 18.412095 
